#!OML:ASF E:\motion texture\Top Level 1\Subject 1\Session 1\male.ASF
:FULLY-SPECIFIED
:DEGREES
145
root 6.43766 17.8178 5.19301 439.14 -87.5283 -431.092
lowerback -1.25662 -1.92474 1.2968
upperback -2.23287 -2.61463 4.27452
thorax -1.44625 -1.33229 3.6703
lowerneck -10.7459 -5.79911 -6.49487
upperneck 11.0544 -7.62027 5.90816
head 5.57275 -3.60848 2.27534
rclavicle 2.18663e-014 -3.57812e-014
rhumerus -38.1383 -7.67806 -76.6285
rradius 42.645
rwrist -4.71807
rhand -14.7506 -30.6732
rfingers 7.12502
rthumb 11.4052 -60.343
lclavicle 2.18663e-014 -3.57812e-014
lhumerus -24.8948 -3.52755 88.5174
lradius 41.4372
lwrist -20.6343
lhand -17.4881 19.6051
lfingers 7.12502
lthumb 8.76431 49.4031
rfemur -29.3579 0.593717 21.3527
rtibia 23.4202
rfoot 0.363773 -12.3814
rtoes 16.7564
lfemur -0.164984 -6.38292 -16.3851
ltibia 36.1718
lfoot 4.95612 -4.338
ltoes -22.3462
146
root 6.26629 17.8394 5.1603 439.673 -87.1136 -431.607
lowerback -1.27142 -1.93283 1.70026
upperback -2.2058 -2.63303 4.40907
thorax -1.42103 -1.34939 3.582
lowerneck -10.6908 -5.9302 -6.55679
upperneck 11.1891 -7.8199 6.03563
head 5.62604 -3.70099 2.30671
rclavicle -5.51627e-015 7.15625e-015
rhumerus -38.7827 -7.53492 -76.5415
rradius 43.6033
rwrist -5.20149
rhand -15.0898 -30.6375
rfingers 7.12502
rthumb 11.0781 -60.3252
lclavicle -5.51627e-015 7.15625e-015
lhumerus -25.7657 -3.04548 88.3205
lradius 40.1826
lwrist -21.0893
lhand -16.7733 19.6592
lfingers 7.12502
lthumb 9.45407 49.4272
rfemur -28.6407 0.758904 21.9926
rtibia 23.3049
rfoot -0.0899769 -12.3717
rtoes 17.2809
lfemur -1.28386 -6.03615 -15.664
ltibia 38.1488
lfoot 7.39203 -4.44136
ltoes -19.619
147
root 6.09772 17.8591 5.12873 440.388 -86.6578 -432.31
lowerback -1.27076 -1.93734 2.14985
upperback -2.1724 -2.64727 4.54924
thorax -1.40022 -1.36516 3.47439
lowerneck -10.6317 -6.06374 -6.6096
upperneck 11.3375 -8.0285 6.17721
head 5.6842 -3.79661 2.34005
rclavicle 1.00883e-014 1.11319e-014
rhumerus -39.3634 -7.32519 -76.4754
rradius 44.6179
rwrist -5.60241
rhand -15.4808 -30.5715
rfingers 7.12502
rthumb 10.701 -60.279
lclavicle 1.00883e-014 1.11319e-014
lhumerus -26.5962 -2.49181 88.0697
lradius 38.8869
lwrist -21.6415
lhand -15.9608 19.6852
lfingers 7.12502
lthumb 10.238 49.416
rfemur -27.919 0.932852 22.6854
rtibia 23.1797
rfoot -0.584446 -12.3893
rtoes 17.5579
lfemur -2.44504 -5.66564 -14.9118
ltibia 40.1639
lfoot 9.51533 -4.52429
ltoes -16.7556
148
root 5.93189 17.8769 5.09848 441.25 -86.1798 -433.179
lowerback -1.253 -1.93482 2.62264
upperback -2.12393 -2.65263 4.6926
thorax -1.37496 -1.37677 3.35772
lowerneck -10.5727 -6.20276 -6.65654
upperneck 11.4976 -8.24907 6.3309
head 5.74755 -3.89693 2.37484
rclavicle 2.00276e-014 7.95139e-016
rhumerus -39.876 -7.06379 -76.421
rradius 45.6982
rwrist -5.93619
rhand -15.8745 -30.5165
rfingers 7.12502
rthumb 10.3212 -60.2432
lclavicle 2.00276e-014 7.95139e-016
lhumerus -27.3816 -1.855 87.7648
lradius 37.5608
lwrist -22.3139
lhand -15.1046 19.6665
lfingers 7.12502
lthumb 11.0639 49.3549
rfemur -27.1845 1.107 23.41
rtibia 23.0464
rfoot -1.10299 -12.4169
rtoes 17.6388
lfemur -3.62578 -5.27153 -14.1551
ltibia 42.1953
lfoot 11.1856 -4.54857
ltoes -14.0126
149
root 5.76906 17.8928 5.06981 442.194 -85.7053 -434.151
lowerback -1.20572 -1.92651 3.09314
upperback -2.05763 -2.64962 4.83431
thorax -1.34827 -1.38392 3.24172
lowerneck -10.534 -6.34485 -6.7254
upperneck 11.6782 -8.47719 6.52284
head 5.82449 -3.99862 2.42342
rclavicle 8.69683e-015 6.36111e-015
rhumerus -40.3033 -6.74923 -76.3734
rradius 46.8377
rwrist -6.23301
rhand -16.2381 -30.485
rfingers 7.12502
rthumb 9.97047 -60.2289
lclavicle 8.69683e-015 6.36111e-015
lhumerus -28.1123 -1.10292 87.3966
lradius 36.1959
lwrist -23.1471
lhand -14.2671 19.5265
lfingers 7.12502
lthumb 11.8715 49.1699
rfemur -26.4359 1.27076 24.1341
rtibia 22.9075
rfoot -1.63329 -12.4427
rtoes 17.6361
lfemur -4.81696 -4.86107 -13.4277
ltibia 44.2311
lfoot 12.2839 -4.45254
ltoes -11.8821
150
root 5.60879 17.9072 5.04259 443.202 -85.2537 -435.215
lowerback -1.1244 -1.91115 3.5423
upperback -1.97706 -2.63536 4.96642
thorax -1.32575 -1.38474 3.12905
lowerneck -10.4974 -6.49144 -6.81734
upperneck 11.8771 -8.7168 6.7566
head 5.91205 -4.10381 2.4872
rclavicle -1.01877e-014 3.18055e-014
rhumerus -40.6561 -6.39318 -76.3277
rradius 48.0344
rwrist -6.51743
rhand -16.543 -30.4585
rfingers 7.12502
rthumb 9.67633 -60.2163
lclavicle -1.01877e-014 3.18055e-014
lhumerus -28.822 -0.243717 86.9561
lradius 34.8261
lwrist -24.1531
lhand -13.4944 19.2961
lfingers 7.12502
lthumb 12.6166 48.8951
rfemur -25.6637 1.42345 24.8343
rtibia 22.7582
rfoot -2.14964 -12.451
rtoes 17.5591
lfemur -6.00305 -4.43337 -12.7497
ltibia 46.2473
lfoot 12.7391 -4.20266
ltoes -10.6557
151
root 5.45096 17.9202 5.01688 444.185 -84.8497 -436.28
lowerback -1.01253 -1.89281 3.94391
upperback -1.8815 -2.61472 5.08346
thorax -1.30348 -1.38116 3.0284
lowerneck -10.4704 -6.64376 -6.94507
upperneck 12.0967 -8.969 7.04042
head 6.01361 -4.21275 2.57043
rclavicle -3.0265e-014 3.73715e-014
rhumerus -40.9261 -6.00385 -76.2733
rradius 49.286
rwrist -6.79211
rhand -16.7543 -30.445
rfingers 7.12502
rthumb 9.47245 -60.2121
lclavicle -3.0265e-014 3.73715e-014
lhumerus -29.5107 0.741405 86.4317
lradius 33.4595
lwrist -25.3598
lhand -12.8192 18.9738
lfingers 7.12502
lthumb 13.2674 48.5316
rfemur -24.8726 1.55952 25.4763
rtibia 22.5994
rfoot -2.65188 -12.4354
rtoes 17.4362
lfemur -7.18526 -3.99596 -12.1507
ltibia 48.2221
lfoot 12.5642 -3.8044
ltoes -10.3575
